<svg width="400" height="240" viewBox="0 0 400 240" fill="none" xmlns="http://www.w3.org/2000/svg">
<path d="M0 0H400V240H0V0Z" fill="black"/>
<path fill-rule="evenodd" clip-rule="evenodd" d="M399 1H1V239H399V1ZM0 0V240H400V0H0Z" fill="white"/>
<path d="M153.318 121.333C186.421 121.54 218.591 135.399 242.722 157.839C245.725 154.91 247.363 150.99 249.195 147.295C249.228 147.294 249.261 147.293 249.294 147.291C250.87 151.335 248.839 155.47 246.847 158.96C248.091 159.058 248.778 159.707 248.841 160.972C250.346 160.727 251.157 161.41 250.906 162.946C252.065 163.095 253.121 163.48 252.827 164.828C254.963 165.357 253.844 166.626 253.213 167.984C254.219 168.547 255.29 169.002 256.122 169.818C256.496 170.181 256.826 170.473 257.407 170.44C258.302 170.524 259.141 171.217 258.815 172.306C258.356 174.032 257.033 175.471 255.488 176.321C254.483 176.91 253.007 176.821 253.013 175.391C253.003 175.054 252.888 174.946 252.583 174.886C250.881 174.618 249.991 172.613 248.295 174.253C246.89 175.511 246.097 177.067 245.721 178.914C244.541 184.703 242.888 190.352 240.548 195.787C236.756 205.515 223.166 224.645 212.064 213.345C211.755 213.08 211.701 212.457 211.241 212.418C195.397 211.481 178.31 206.119 168.6 192.814C168.382 192.508 168.128 192.366 167.768 192.293C160.035 190.71 150.471 186.452 149.675 177.553C148.816 170.006 154.39 164.556 161.662 163.887C169.746 162.255 176.286 167.172 180.801 173.43C181.002 173.71 181.222 173.769 181.551 173.766C188.758 173.627 196.114 175.328 201.839 179.891C206.02 183.162 209.153 187.474 212.511 191.531C214.18 193.561 216.316 195.598 219.089 195.741C219.526 195.772 219.527 195.774 219.682 195.374C220.5 193.266 221.487 191.24 222.631 189.29C224.078 186.825 225.752 184.534 227.835 182.558C232.252 178.884 238.321 175.75 238.283 169.176C235.842 170.133 234.447 172.106 233.135 174.266C232.09 169.866 234.327 165.997 237.147 162.81C209.506 143.049 177.918 128.756 144.599 121.908C144.603 121.872 144.608 121.836 144.612 121.8C147.499 121.422 150.424 121.448 153.318 121.333Z" fill="white"/>
<path d="M161.857 128.596C162.452 130.361 164.985 136.621 161.817 136.871C158.75 136.606 161.153 130.29 161.857 128.596Z" fill="white"/>
<path d="M142.543 123.531C143.234 125.262 145.858 132.29 142.09 131.71C139.71 130.803 141.87 125.243 142.543 123.531Z" fill="white"/>
<path d="M180.932 144.947C181.537 147.352 182.979 149.952 182.06 152.438C181.143 153.944 179.31 152.971 179.345 151.386C179.234 149.153 180.056 147.016 180.817 144.959C180.856 144.955 180.894 144.951 180.932 144.947Z" fill="white"/>
<path d="M149.757 146.063C150.588 147.823 153.138 155.673 148.916 154.045C147.202 152.44 149.133 147.996 149.757 146.063Z" fill="white"/>
<path d="M178.077 134.472C178.664 136.19 181.143 142.525 177.988 142.688C174.86 142.233 177.476 136.346 177.998 134.486C178.024 134.481 178.051 134.476 178.077 134.472Z" fill="white"/>
<path d="M147.415 135.704C148.084 137.373 150.442 143.597 147.401 143.838C144.267 143.606 146.713 137.44 147.331 135.709C147.359 135.707 147.387 135.705 147.415 135.704Z" fill="white"/>
<path d="M173.843 142.844C174.641 144.553 177.193 152.311 173.055 150.854C171.272 149.442 173.14 144.642 173.843 142.844Z" fill="white"/>
<path d="M156.456 139.836C157.115 141.534 159.582 147.949 156.355 148.028C153.421 147.747 155.716 141.441 156.456 139.836Z" fill="white"/>
<path d="M148.559 127.784C149.001 129.18 151.002 134.066 148.495 134.27C146.057 134.056 147.954 129.154 148.484 127.796C148.509 127.792 148.534 127.788 148.559 127.784Z" fill="white"/>
<path d="M201.927 24.0931C203.396 24.2062 206.485 24.5421 211.24 26.1787C216.321 27.927 220.343 29.5342 224.807 32.9974C229.365 36.5338 232.37 41.3808 234.176 46.803C235.459 50.6535 235.421 54.7015 235.048 58.7211C234.597 63.5883 233.892 68.4839 232.817 73.2736C231.748 78.0361 230.445 82.82 228.068 87.1134C227.485 88.1678 226.823 89.3238 225.546 89.5836C223.046 90.0917 220.416 90.4579 217.901 90.3707C216.465 90.3208 215.869 90.8307 215.449 92.0905C214.904 93.728 214.624 95.5928 214.479 97.3406C214.443 97.776 214.606 98.4778 213.857 98.5947C213.041 98.7217 212.634 99.0577 211.754 99.1975C210.065 99.466 208.252 99.0253 206.489 98.9049C203.377 98.6924 199.104 97.4729 196.05 98.2048C193.302 98.8637 190.116 98.9035 187.312 98.7248C184.859 98.5684 184.678 98.5557 184.116 96.2879C183.607 94.2383 180.961 91.6639 179.076 91.5346C176.223 91.3388 173.948 90.6104 171.73 89.0842C168.796 87.0661 167.627 84.5771 168.365 81.0341C168.699 79.4273 168.675 77.6672 168.362 76.0206C167.51 71.5328 166.523 67.048 165.628 62.5733C164.992 59.3887 164.289 56.2027 164.94 52.955C166.219 46.5809 168.94 40.6891 173.335 35.7716C175.39 33.4718 177.632 31.5304 180.055 29.9214C182.372 28.383 187.482 25.3552 194.608 24.3437C198.01 23.8601 200.71 23.9998 201.927 24.0931ZM193.176 71.4723C193.369 70.8284 192.993 70.1915 192.82 69.6299C192.039 67.0966 188.338 64.3062 185.831 64.669C181.66 65.2721 178.074 67.0138 175.012 69.4253C172.332 71.5363 171.481 73.8689 173.074 76.856C173.379 77.4272 173.633 77.7619 174.123 78.2902C176.184 80.5111 180.017 82.1297 183.104 81.0687C186.372 79.9456 189.525 78.1036 191.775 75.3005C192.606 74.2658 193.32 72.8754 193.176 71.4723ZM215.524 82.1582C215.946 82.106 216.425 82.1993 216.822 82.0346C220.33 80.5768 222.765 78.1833 223.88 74.5006C224.41 72.7497 223.868 71.2472 222.692 69.9383C219.92 66.8535 216.234 65.4973 212.205 64.8468C211.094 64.6676 210.002 64.1315 208.751 64.7772C206.457 65.9616 204.714 68.6964 205.448 71.4434C206.136 74.0196 207.309 76.5642 209.153 78.5692C210.864 80.4305 212.911 82.0162 215.524 82.1582ZM203.859 85.3371C203.674 82.4556 202.664 79.8952 201.126 77.8845C199.968 76.3711 198.992 76.4214 198.019 77.6922C196.084 80.2189 194.663 82.9173 193.681 85.9394C193.241 87.2921 193.715 88.0784 194.98 88.7447C195.642 89.0934 196.476 89.404 197.175 89.6296C200.528 90.7115 204.088 88.9046 203.859 85.3371Z" fill="white"/>
<path d="M202.601 107.197C199.871 107.149 200.286 107.639 200.298 104.619C200.303 103.506 200.496 102.384 200.696 101.283C200.781 100.817 201.06 100.269 201.645 100.279C202.157 100.286 202.335 100.749 202.455 101.22C202.754 102.406 203.791 102.331 204.639 102.29C205.755 102.234 206.106 102.663 205.976 103.699C205.859 104.635 205.768 105.574 205.697 106.514C205.656 107.043 205.362 107.202 204.89 107.198C204.212 107.192 203.534 107.197 202.601 107.197Z" fill="white"/>
<path d="M191.284 105.069C191.43 104.396 191.567 103.458 191.841 102.563C192.391 100.767 193.675 100.417 195.114 101.659C195.795 102.247 196.383 102.942 197.044 103.556C197.948 104.396 197.254 105.225 197.031 106.032C196.828 106.769 196.392 107.309 195.473 107.205C194.359 107.079 193.235 107.031 192.121 106.906C191.098 106.792 191.372 105.967 191.284 105.069Z" fill="white"/>
<path d="M211.993 106.657C208.403 106.653 207.814 105.945 208.454 102.41C208.719 100.947 209.088 100.77 210.449 101.434C212.021 102.201 213.367 103.243 214.244 104.774C214.99 106.076 214.678 106.591 213.211 106.654C212.806 106.672 212.399 106.657 211.993 106.657Z" fill="white"/>
<path d="M187.237 105.022C187.096 105.79 187.605 106.848 186.409 107.174C184.828 107.605 183.827 107.161 183.16 105.836C182.34 104.206 182.385 102.78 183.285 101.798C183.874 101.155 184.599 100.809 185.462 100.998C186.301 101.181 186.715 101.862 186.919 102.623C187.126 103.4 187.362 104.189 187.237 105.022Z" fill="white"/>
</svg>
